<svg xmlns="http://www.w3.org/2000/svg" version="1.1" xmlns:xlink="http://www.w3.org/1999/xlink" xmlns:svgjs="http://svgjs.dev/svgjs" width="100%" height="100%" viewBox="0 0 1000 600"><rect width="1000" height="600" x="0" y="0" fill="#d9e7fc"/><g><rect width="333.3333333333333" height="333.3333333333333" rx="13.333333333333334" ry="13.333333333333334" y="179.99681715752186" fill="#ffffff" transform="matrix(0.7922694923246958,0,0,0.7922694923246958,0,25.349091403569474)" x="157.77459716796875"/><path d="M172.71439610529703 316.33776544440366L172.71439610529703 273.881758035522L293.20297268698425 273.881758035522L293.20297268698425 316.33776544440366L282.7012883146815 316.33776544440366L276.2430332194151 286.01204586663107L243.0812972737212 286.01204586663107L243.0812972737212 405.9109556787504L264.5058565680179 410.74060731521047L264.5058565680179 419.44521200883037L201.43959159424273 419.44521200883037L201.43959159424273 410.74060731521047L222.86415088853946 405.9109556787504L222.86415088853946 286.01204586663107L189.50585935298963 286.01204586663107L183.24415984757917 316.33776544440366L172.71439610529703 316.33776544440366ZM351.8326972040112 370.1097589549911L301.093275651201 370.1097589549911L301.093275651201 356.5755026249111L351.8326972040112 356.5755026249111L351.8326972040112 370.1097589549911ZM430.6795681062199 421.66348223720456L430.6795681062199 421.66348223720456Q418.77391523494623 421.66348223720456 408.9461357421495 418.04124350985944Q399.14643561933235 414.390925412535 392.6881805240659 407.70803535743323L392.6881805240659 407.70803535743323L390.4699102956918 419.44521200883037L379.1258448240065 419.44521200883037L379.1258448240065 373.5635214624597L391.4807676149509 373.5635214624597Q392.6881805240659 392.7698105283823 401.16815025785047 401.64289144187876Q409.67619936161447 410.5440517253546 426.8607737890188 410.5440517253546L426.8607737890188 410.5440517253546Q441.20933184850196 410.5440517253546 448.4818886731715 404.98433646942965Q455.75444549784106 399.4246212135047 455.75444549784106 388.5017462915106L455.75444549784106 388.5017462915106Q455.75444549784106 379.8252209678701 451.40214315103117 373.9566326421716Q447.0779201742006 368.088044316473 438.8787441402102 363.45494826986885Q430.6795681062199 358.7937728532853 419.363582004514 354.35723239653703L419.363582004514 354.35723239653703Q406.6436274038372 349.0783108404063 397.74246712036137 343.93978613417255Q388.8413068368855 338.7731820579595 384.2924489002196 331.38830775337226Q379.74359096355374 324.03151281876444 379.74359096355374 312.2943361673673L379.74359096355374 312.2943361673673Q379.74359096355374 293.08804710144466 391.7615613147451 282.3617277693066Q403.80761103591584 271.66348780714793 424.02475742109755 271.66348780714793L424.02475742109755 271.66348780714793Q444.04534821642335 271.66348780714793 456.5687472272442 282.97947390885383L456.5687472272442 282.97947390885383L458.1973506860505 273.881758035522L469.51333678775643 273.881758035522L469.51333678775643 319.7634485818928L457.97271572621514 319.7634485818928Q457.97271572621514 300.3606039261142 450.7001589015457 291.45944364263835Q443.42760207687616 282.5863627291419 427.87163110827794 282.5863627291419L427.87163110827794 282.5863627291419Q400.15729293859135 282.5863627291419 400.15729293859135 307.85779571061903L400.15729293859135 307.85779571061903Q400.15729293859135 314.5126063957414 402.6001981268008 318.8649087425514Q405.01502394503086 323.2172110893613 411.389040930359 326.8394498167064Q417.7630579156871 330.48976791403084 429.4721551971048 335.5440545103263L429.4721551971048 335.5440545103263Q446.26361844479743 342.6200557451399 456.5687472272442 349.30294580024156Q466.873876009691 355.9577564853639 471.53505142627466 363.73574196966297Q476.1681474728788 371.54180682394156 476.1681474728788 382.24004678610015L476.1681474728788 382.24004678610015Q476.1681474728788 394.56689020706517 470.41187662709785 403.4680504905409Q464.6556057813169 412.3692107740168 454.4347151088084 417.0303861906003Q444.2419038062793 421.66348223720456 430.6795681062199 421.66348223720456Z " fill="#526c8c" transform="matrix(0.7922694923246958,0,0,0.7922694923246958,0,25.349091403569474)"/><path d="M574.4412637850251 324.0997611423062L574.4412637850251 284.77255597516756L686.0504154862101 284.77255597516756L686.0504154862101 324.0997611423062L676.3226544197353 324.0997611423062L670.3403414644166 296.0089003086357L639.6224649416715 296.0089003086357L639.6224649416715 407.0718408269437L659.4681379195331 411.545570515269L659.4681379195331 419.6086879767855L601.0495514080296 419.6086879767855L601.0495514080296 411.545570515269L620.8952243858912 407.0718408269437L620.8952243858912 296.0089003086357L589.9952774688538 296.0089003086357L584.1950349078273 324.0997611423062L574.4412637850251 324.0997611423062ZM740.3594130979728 373.90901900941617L693.3592413142298 373.90901900941617L693.3592413142298 361.37217185957434L740.3594130979728 361.37217185957434L740.3594130979728 373.90901900941617ZM813.3956512655159 421.66348242665583L813.3956512655159 421.66348242665583Q802.3673873826675 421.66348242665583 793.2638676680522 418.3081851604119Q784.1863580097643 414.9268778378405 778.2040450544455 408.736484431902L778.2040450544455 408.736484431902L776.1492506045752 419.6086879767855L765.6411878482762 419.6086879767855L765.6411878482762 377.1082559376953L777.0856126323641 377.1082559376953Q778.2040450544455 394.89913446568653 786.0590820653422 403.1183122651679Q793.9401291325664 411.3635001209767 809.8582836049796 411.3635001209767L809.8582836049796 411.3635001209767Q823.1494223883182 411.3635001209767 829.8860269771335 406.21350896813715Q836.622631565949 401.0635178152976 836.622631565949 390.94560590391075L836.622631565949 390.94560590391075Q836.622631565949 382.90849849872166 832.5910728351907 377.47239672627995Q828.5855241607599 372.03629495383814 820.9905877131379 367.7446356598051Q813.3956512655159 363.42696630944465 802.9135985655444 359.317377409704L802.9135985655444 359.317377409704Q791.1310430491994 354.42748682013917 782.8858551933906 349.6676465122117Q774.6406673375818 344.8817961479567 770.4270382125312 338.0411513338314Q766.2134090874806 331.22651657603365 766.2134090874806 320.3543130311501L766.2134090874806 320.3543130311501Q766.2134090874806 302.5634345031588 777.3457131956388 292.6275929860643Q788.5040273601246 282.7177615252972 807.2312679159049 282.7177615252972L807.2312679159049 282.7177615252972Q825.7764380773929 282.7177615252972 837.3769231994456 293.1998142252687L837.3769231994456 293.1998142252687L838.8855064664391 284.77255597516756L849.3675591664105 284.77255597516756L849.3675591664105 327.27298801425775L838.6774260158193 327.27298801425775Q838.6774260158193 309.3000390919742 831.9408214270039 301.0548512361654Q825.2042168381885 292.83567343668403 810.7946456327686 292.83567343668403L810.7946456327686 292.83567343668403Q785.1227200375532 292.83567343668403 785.1227200375532 316.2447241314094L785.1227200375532 316.2447241314094Q785.1227200375532 322.40910748102044 787.3855949380433 326.44066621177865Q789.622459782206 330.47222494253697 795.5267425685422 333.8275222087809Q801.4310253548786 337.2088295313523 812.2772188434346 341.89063967029745L812.2772188434346 341.89063967029745Q827.8312325272632 348.4451738648205 837.3769231994456 354.635567270759Q846.9226138716281 360.79995062036994 851.2402832219886 368.0047362230798Q855.5319425160214 375.23553188211724 855.5319425160214 385.14536334288437L855.5319425160214 385.14536334288437Q855.5319425160214 396.56377807064484 850.1998809688896 404.80896592645365Q844.8678194217578 413.05415378226235 835.4001589185577 417.3718231326229Q825.9585084716853 421.66348242665583 813.3956512655159 421.66348242665583ZM965.8405914008329 368.1087764483898L965.8405914008329 368.1087764483898Q965.8405914008329 380.28148280964695 962.1991835149867 391.2317165235129Q958.531765572813 402.1819502373788 951.9772313782898 409.3087056711064L951.9772313782898 409.3087056711064Q946.3590592115559 415.4990990770449 938.1398814120745 418.49025555470416Q929.8946935562656 421.48141203236355 919.4126408562943 421.48141203236355L919.4126408562943 421.48141203236355Q909.1126585506152 421.48141203236355 901.0495410890985 418.5682857236866Q892.9864236275821 415.68116947133717 887.368251460848 409.67284645969096L887.368251460848 409.67284645969096Q881.0217977169447 402.7541714765832 877.5364501690633 392.55822939621396Q874.0771126775095 382.33627725951726 874.0771126775095 370.3456412925524L874.0771126775095 370.3456412925524Q874.0771126775095 358.17293493129523 877.6404903943733 347.040630823137Q881.2038681112369 335.90832671497867 887.9404727000524 328.7815712812512L887.9404727000524 328.7815712812512Q893.9227856553712 322.40910748102044 901.8818628915777 319.5219912286709Q909.8409401277843 316.60886491999406 920.1409224334634 316.60886491999406L920.1409224334634 316.60886491999406Q930.4409047391425 316.60886491999406 938.6860925949514 319.5219912286709Q946.9312804507601 322.40910748102044 952.5494526174944 328.41743049266654L952.5494526174944 328.41743049266654Q959.1039868120174 335.3361054757743 962.4852941345889 345.74012800676337Q965.8405914008329 356.1181404814249 965.8405914008329 368.1087764483898ZM894.1308661059909 368.2908468426821L894.1308661059909 368.2908468426821Q894.1308661059909 379.70926157044255 895.899549936259 388.0584896515612Q897.6682337665271 396.38170767635245 900.8674706948063 401.81780944879426L900.8674706948063 401.81780944879426Q904.0406975667579 406.4996195877393 908.4363970861007 409.126635276814Q912.8581066617711 411.7536509658888 919.9588520391712 411.7536509658888L919.9588520391712 411.7536509658888Q932.885850033925 411.7536509658888 939.2583138341558 402.9362418708756L939.2583138341558 402.9362418708756Q942.6136111003998 398.0723613376382 944.2262345927031 389.4630326932447Q945.8128480286789 380.85370404885134 945.8128480286789 369.61735971538315L945.8128480286789 369.61735971538315Q945.8128480286789 358.38101538191506 944.0181541420833 349.95375713181386Q942.2494703118151 341.52649888171277 939.0762434398634 336.27246750356335L939.0762434398634 336.27246750356335Q936.0590769058767 331.4085869703259 931.4813069922416 328.8856115065611Q926.9035370786064 326.3366259864688 919.7767816448788 326.3366259864688L919.7767816448788 326.3366259864688Q906.6677132558327 326.3366259864688 900.8674706948063 334.9719646871897L900.8674706948063 334.9719646871897Q894.1308661059909 345.4540173871611 894.1308661059909 368.2908468426821ZM995.9862466843736 327.84520925346214L977.8312273677976 327.84520925346214L977.8312273677976 321.1086046646468L995.9862466843736 318.4815889755721L995.9862466843736 316.60886491999406Q995.9862466843736 295.07253828084674 1005.3498669622637 283.368012933484Q1014.7134872401539 271.6634875861214 1030.631641712567 271.6634875861214L1030.631641712567 271.6634875861214Q1041.685915651743 271.6634875861214 1048.3444900715758 276.99554913325323Q1054.9770544350813 282.32761068038513 1054.9770544350813 290.572798536194L1054.9770544350813 290.572798536194Q1054.9770544350813 295.8268299143434 1052.376048802334 298.53187577240055Q1049.7490331132594 301.26293168678524 1045.2492933686067 301.26293168678524L1045.2492933686067 301.26293168678524Q1040.931624018246 301.26293168678524 1038.3306183854988 298.8179863920028Q1035.7036026964242 296.3730410972204 1035.7036026964242 291.8993114088951L1035.7036026964242 291.8993114088951Q1035.7036026964242 287.0094208193302 1038.6947591740836 282.1455402860928L1038.6947591740836 282.1455402860928Q1035.521532302132 278.79024301984884 1030.08543052969 278.79024301984884L1030.08543052969 278.79024301984884Q1025.7677611793297 278.79024301984884 1022.594534307378 280.6629670754269L1022.594534307378 280.6629670754269Q1018.45893535131 283.08190231388187 1016.6902515210418 287.5816420585346Q1014.9215676907736 292.08138180318736 1014.5314168458615 297.5955137446116Q1014.1672760572769 303.13565574236327 1014.1672760572769 309.11796869768193L1014.1672760572769 309.11796869768193L1014.1672760572769 318.4815889755721L1038.1225379348791 318.4815889755721L1038.1225379348791 327.84520925346214L1014.1672760572769 327.84520925346214L1014.1672760572769 408.3723436433173L1034.377089823723 411.9357213601811L1034.377089823723 419.6086879767855L981.5766754789538 419.6086879767855L981.5766754789538 411.9357213601811L995.9862466843736 408.3723436433173L995.9862466843736 327.84520925346214ZM1062.2858802631013 327.84520925346214L1044.1308609465254 327.84520925346214L1044.1308609465254 321.1086046646468L1062.2858802631013 318.4815889755721L1064.7308255578837 294.8904678865544L1080.4669096360046 292.6275929860643L1080.4669096360046 318.4815889755721L1104.4221715136068 318.4815889755721L1104.4221715136068 327.84520925346214L1080.4669096360046 327.84520925346214L1080.4669096360046 394.6910540150668Q1080.4669096360046 401.0635178152976 1080.648980030297 403.40442288477004Q1080.8310504245892 405.7453279542426 1081.4032716637935 407.2539112212361L1081.4032716637935 407.2539112212361Q1081.9494828466704 408.5544140376096 1083.458066113664 409.02259505150414Q1084.9406393243298 409.4907760653987 1088.3219466469013 409.4907760653987L1088.3219466469013 409.4907760653987L1101.4310150359474 409.4907760653987L1101.4310150359474 414.9268778378405Q1092.431535546642 418.3081851604119 1085.6169007888443 419.89479859638766Q1078.7762559747189 421.48141203236355 1074.6406570186507 421.48141203236355L1074.6406570186507 421.48141203236355Q1066.2133987685497 421.48141203236355 1063.7944635300946 414.5627370492558L1063.7944635300946 414.5627370492558Q1063.040171896598 412.29986214876567 1062.6760311080134 408.736484431902Q1062.2858802631013 405.19911677136565 1062.2858802631013 398.2544317319305L1062.2858802631013 398.2544317319305L1062.2858802631013 327.84520925346214Z " fill="#526c8c" transform="matrix(0.7922694923246958,0,0,0.7922694923246958,0,25.349091403569474)"/></g></svg>